<?xml version="1.0" encoding="utf-8"?><svg width="293" height="282" viewBox="0 0 293 282" xmlns="http://www.w3.org/2000/svg" xmlns:xlink="http://www.w3.org/1999/xlink"><svg width="29" height="24" viewBox="-4 -4 29 24" id="icon_arror_right_21x16_blue" x="223" y="108" xmlns="http://www.w3.org/2000/svg"><path d="M13.477 1l7 7-7 7m7-7H1" fill="none" fill-rule="evenodd" stroke="#388BE8" stroke-linecap="round" stroke-linejoin="round"/></svg><svg width="23" height="16" viewBox="-4 -4 23 16" id="icon_arrow_down_15x8_black" x="160" y="90" xmlns="http://www.w3.org/2000/svg"><path fill-rule="evenodd" d="M7.5 8a.502.502 0 01-.354-.146l-7-7A.502.502 0 01.854.146L7.5 6.793 14.146.146a.502.502 0 01.708.708l-7 7A.502.502 0 017.5 8"/></svg><svg width="23" height="17" viewBox="-4 -4 23 17" id="icon_arrow_down_15x9_white" x="223" y="132" xmlns="http://www.w3.org/2000/svg"><path fill="#FFF" fill-rule="evenodd" d="M7.778 8.383L15 1.063 14 0 7.5 6.538 1 0 0 1.063l7.222 7.32a.39.39 0 00.556 0z"/></svg><svg width="27" height="27" viewBox="-4 -4 27 27" id="icon_arrow_left_19x19_white" x="86" y="226" xmlns="http://www.w3.org/2000/svg"><path d="M9 1L1 9.5 9 18M1 9.5h17.878" fill="none" fill-rule="evenodd" stroke="#FFF" stroke-width="1.5"/></svg><svg width="14" height="18" viewBox="-4 -4 14 18" id="icon_arrow_right_6x10_gray" x="27" y="255" xmlns="http://www.w3.org/2000/svg"><path fill="#525859" fill-rule="evenodd" d="M5.5 5a.23.23 0 01-.073.167L.852 9.5.5 9.167 4.899 5 .5.833.852.5l4.575 4.333A.23.23 0 015.5 5"/></svg><svg width="23" height="16" viewBox="-4 -4 23 16" id="icon_arrow_up_15x8_black" x="183" y="90" xmlns="http://www.w3.org/2000/svg"><path fill="#292b2c" fill-rule="evenodd" d="M7.5 0a.502.502 0 00-.354.146l-7 7a.502.502 0 00.708.708L7.5 1.207l6.646 6.647a.502.502 0 00.708-.708l-7-7A.502.502 0 007.5 0"/></svg><svg width="23" height="17" viewBox="-4 -4 23 17" id="icon_arrow_up_15x9_white" x="72" y="160" xmlns="http://www.w3.org/2000/svg"><path fill="#FFF" fill-rule="evenodd" d="M7.778.117L15 7.437 14 8.5 7.5 1.962 1 8.5 0 7.437 7.222.117a.39.39 0 01.556 0z"/></svg><svg width="27" height="26" viewBox="-4 -4 27 26" id="icon_attach_comment_19x18_white" x="113" y="226" xmlns="http://www.w3.org/2000/svg"><g fill="none" fill-rule="evenodd"><path stroke="#FFF" stroke-linejoin="round" d="M18 7.524C18 4.106 15.336 1.303 11.936 1l-4.894.002C3.653 1.314 1 4.113 1 7.524c0 3.497 2.79 6.346 6.301 6.535l2.19 3.527 2.188-3.527C15.199 13.881 18 11.027 18 7.524z"/><path fill="#FFF" d="M10.432 7.533a.812.812 0 01-.818.805.812.812 0 01-.818-.805.81.81 0 01.818-.803.81.81 0 01.818.803zm3.83 0a.812.812 0 01-.818.805.812.812 0 01-.818-.805.81.81 0 01.818-.803.81.81 0 01.818.803zm-7.66 0a.812.812 0 01-.819.805.812.812 0 01-.818-.805.81.81 0 01.818-.803c.453 0 .819.36.819.803z"/></g></svg><svg width="97" height="90" viewBox="-4 -4 97 90" id="icon_attach_graphic_89x82_gray" x="160" xmlns="http://www.w3.org/2000/svg"><g fill="none" fill-rule="evenodd" transform="translate(0 -1)"><rect width="64" height="64" x="17.5" y="8.5" fill="#F5F6F9" stroke="#CFD1D5" rx="2" transform="rotate(15 49.5 40.5)"/><g transform="translate(0 18)"><rect width="64" height="64" x=".5" y=".5" fill="#FFF" stroke="#C2C3C8" rx="2"/><g transform="matrix(-1 0 0 1 60 5)"><rect width="54" height="45" x=".5" y=".5" fill="#F5F6F9" stroke="#E1E1E3" rx="1"/><circle cx="12" cy="18" r="3.5" stroke="#C1C3C9"/><path stroke="#C1C3C9" stroke-linecap="round" stroke-linejoin="round" d="M11 33.137l7.398-7.398a2 2 0 012.829 0l5.492 5.492 9.816-9.817a2 2 0 012.829 0l10.41 10.41"/></g></g></g></svg><svg width="26" height="26" viewBox="-4 -4 26 26" id="icon_attach_photo_18x18_black" x="140" y="226" xmlns="http://www.w3.org/2000/svg"><defs><path d="M0 16.005C0 17.107.893 18 1.995 18h14.01A1.995 1.995 0 0018 16.005V1.995A1.995 1.995 0 0016.005 0H1.995A1.995 1.995 0 000 1.995v14.01z" id="aja"/></defs><g fill="none" fill-rule="evenodd"><g><mask id="ajb" fill="#fff"><use xlink:href="#aja"/></mask><path stroke="#000" d="M.5 16.005c0 .826.669 1.495 1.495 1.495h14.01c.826 0 1.495-.669 1.495-1.495V1.995C17.5 1.17 16.831.5 16.005.5H1.995C1.17.5.5 1.169.5 1.995v14.01z"/><path d="M.035 13.942l4.568-4.55a2.012 2.012 0 012.83-.008l3.464 3.45 1.918-1.909c.78-.776 2.04-.78 2.83.006l2.39 2.38" stroke="#000" mask="url(#ajb)"/></g><path d="M14.17 5.661a1.182 1.182 0 11-2.363.001 1.182 1.182 0 012.364-.001" fill="#000" opacity=".9"/></g></svg><svg width="32" height="32" viewBox="-4 -4 32 32" id="icon_attach_play_24x24_black" x="257" y="36" xmlns="http://www.w3.org/2000/svg"><defs><filter id="aka" width="140%" height="140%" x="-20%" filterUnits="objectBoundingBox"><feOffset dy="2" in="SourceAlpha" result="shadowOffsetOuter1"/><feGaussianBlur in="shadowOffsetOuter1" result="shadowBlurOuter1" stdDeviation="1"/><feComposite in="shadowBlurOuter1" in2="SourceAlpha" operator="out" result="shadowBlurOuter1"/><feColorMatrix in="shadowBlurOuter1" values="0 0 0 0 0 0 0 0 0 0 0 0 0 0 0 0 0 0 0.2 0"/></filter><path id="akb" d="M20 10c0 5.523-4.477 10-10 10S0 15.523 0 10 4.477 0 10 0s10 4.477 10 10"/></defs><g fill="none" fill-rule="evenodd"><g transform="translate(2)"><use fill="#000" filter="url(#aka)" xlink:href="#akb"/><use fill="#FFF" fill-opacity="0" xlink:href="#akb"/></g><path fill="#FFF" d="M22 10c0 5.523-4.477 10-10 10S2 15.523 2 10 6.477 0 12 0s10 4.477 10 10" opacity=".9"/><path fill="#242424" d="M16.567 9.244l-6.272-3.628a.855.855 0 00-.86 0A.873.873 0 009 6.372v7.256c0 .31.166.6.434.756a.859.859 0 00.862-.001l6.27-3.627a.878.878 0 000-1.512"/></g></svg><svg width="36" height="36" viewBox="-4 -4 36 36" id="icon_attach_play_28x28_black" x="257" xmlns="http://www.w3.org/2000/svg"><defs><filter id="ala" width="133.3%" height="133.3%" x="-16.7%" y="-8.3%" filterUnits="objectBoundingBox"><feOffset dy="2" in="SourceAlpha" result="shadowOffsetOuter1"/><feGaussianBlur in="shadowOffsetOuter1" result="shadowBlurOuter1" stdDeviation="1"/><feComposite in="shadowBlurOuter1" in2="SourceAlpha" operator="out" result="shadowBlurOuter1"/><feColorMatrix in="shadowBlurOuter1" values="0 0 0 0 0 0 0 0 0 0 0 0 0 0 0 0 0 0 0.2 0"/></filter><path id="alb" d="M24 12c0 6.627-5.373 12-12 12S0 18.627 0 12 5.373 0 12 0s12 5.373 12 12"/></defs><g fill="none" fill-rule="evenodd"><g transform="translate(2)"><use fill="#000" filter="url(#ala)" xlink:href="#alb"/><use fill="#FFF" fill-opacity="0" xlink:href="#alb"/></g><path fill="#FFF" d="M14 24C7.373 24 2 18.627 2 12S7.373 0 14 0s12 5.373 12 12-5.373 12-12 12z" opacity=".9"/><path fill="#242424" d="M19.48 11.093l-7.527-4.354a1.035 1.035 0 00-1.031 0 1.053 1.053 0 00-.523.908v8.707c0 .373.2.72.522.906a1.023 1.023 0 001.035 0l7.524-4.352a1.054 1.054 0 00.001-1.815"/></g></svg><svg width="47" height="47" viewBox="-4 -4 47 47" id="icon_attach_play_39x39_black" x="176" y="108" xmlns="http://www.w3.org/2000/svg"><defs><filter id="ama" width="133.3%" height="133.3%" x="-16.7%" y="-10.6%" filterUnits="objectBoundingBox"><feOffset dy="2" in="SourceAlpha" result="shadowOffsetOuter1"/><feGaussianBlur in="shadowOffsetOuter1" result="shadowBlurOuter1" stdDeviation="1.5"/><feComposite in="shadowBlurOuter1" in2="SourceAlpha" operator="out" result="shadowBlurOuter1"/><feColorMatrix in="shadowBlurOuter1" values="0 0 0 0 0 0 0 0 0 0 0 0 0 0 0 0 0 0 0.2 0"/></filter><path id="amb" d="M33 16.5C33 25.612 25.613 33 16.5 33S0 25.612 0 16.5C0 7.387 7.387 0 16.5 0S33 7.387 33 16.5"/></defs><g fill="none" fill-rule="evenodd"><g transform="translate(3 1)"><use fill="#000" filter="url(#ama)" xlink:href="#amb"/><use fill="#FFF" fill-opacity="0" xlink:href="#amb"/></g><path fill="#FFF" d="M36 17.5C36 26.612 28.613 34 19.5 34S3 26.612 3 17.5C3 8.387 10.387 1 19.5 1S36 8.387 36 17.5" opacity=".9"/><path fill="#242424" d="M26.844 16.151l-10.368-5.848a1.585 1.585 0 00-1.55.001 1.556 1.556 0 00-.792 1.35v11.693c0 .555.304 1.073.792 1.349a1.577 1.577 0 001.554-.002l10.362-5.844c.49-.277.792-.794.792-1.35s-.302-1.073-.79-1.349"/></g></svg><svg width="29" height="24" viewBox="-4 -4 29 24" id="icon_attach_video_21x16_black" x="132" y="180" xmlns="http://www.w3.org/2000/svg"><path d="M19.532 2.39l-3.805 2.251V1.993c0-.825-.672-1.493-1.506-1.493H2.006C1.174.5.5 1.17.5 1.994v12.012c0 .825.672 1.494 1.506 1.494h12.215a1.5 1.5 0 001.506-1.493V11.36l3.805 2.25c.614.364.968.162.968-.543V2.934c0-.715-.347-.911-.968-.543z" stroke="#000" fill="none" fill-rule="evenodd"/></svg><svg width="28" height="24" viewBox="-4 -4 28 24" id="icon_camera_20x16_black" x="161" y="180" xmlns="http://www.w3.org/2000/svg"><path fill="#101010" fill-rule="evenodd" d="M2.991 3.333H17.01c1.04 0 1.417.109 1.797.312.38.203.679.502.882.882.204.38.312.757.312 1.798v6.09c0 1.189-.124 1.62-.356 2.054a2.423 2.423 0 01-1.008 1.008c-.435.233-.866.356-2.055.356H3.42c-1.19 0-1.62-.123-2.055-.356A2.423 2.423 0 01.356 14.47C.124 14.035 0 13.604 0 12.415v-6.09c0-1.04.108-1.418.312-1.798a2.12 2.12 0 01.882-.882c.38-.203.757-.312 1.797-.312zm8.676 10.834a5 5 0 100-10 5 5 0 000 10zm0-1.25a3.75 3.75 0 110-7.5 3.75 3.75 0 010 7.5zM2.5 7.083a1.25 1.25 0 100-2.5 1.25 1.25 0 000 2.5zm.224-6.25h3.364c.148 0 .241.024.323.067a.454.454 0 01.189.19.646.646 0 01.067.322v.092a.646.646 0 01-.067.324.454.454 0 01-.19.189.646.646 0 01-.322.066H2.083v-.609c0-.223.024-.303.067-.385A.454.454 0 012.34.9c.08-.043.161-.067.384-.067zm2.693 2.5h.743c.574 0 1.108-.296 1.413-.783L8.677.783A1.667 1.667 0 0110.09 0h3.153c.575 0 1.109.296 1.413.783L15.76 2.55c.305.487.84.783 1.414.783h.326H5.417z" opacity=".9"/></svg><svg width="28" height="24" viewBox="-4 -4 28 24" id="icon_camera_20x16_white" x="189" y="180" xmlns="http://www.w3.org/2000/svg"><path fill="#FFF" fill-rule="evenodd" d="M2.991 3.333H17.01c1.04 0 1.417.109 1.797.312.38.203.679.502.882.882.204.38.312.757.312 1.798v6.09c0 1.189-.124 1.62-.356 2.054a2.423 2.423 0 01-1.008 1.008c-.435.233-.866.356-2.055.356H3.42c-1.19 0-1.62-.123-2.055-.356A2.423 2.423 0 01.356 14.47C.124 14.035 0 13.604 0 12.415v-6.09c0-1.04.108-1.418.312-1.798a2.12 2.12 0 01.882-.882c.38-.203.757-.312 1.797-.312zm8.676 10.834a5 5 0 100-10 5 5 0 000 10zm0-1.25a3.75 3.75 0 110-7.5 3.75 3.75 0 010 7.5zM2.5 7.083a1.25 1.25 0 100-2.5 1.25 1.25 0 000 2.5zm.224-6.25h3.364c.148 0 .241.024.323.067a.454.454 0 01.189.19.646.646 0 01.067.322v.092a.646.646 0 01-.067.324.454.454 0 01-.19.189.646.646 0 01-.322.066H2.083v-.609c0-.223.024-.303.067-.385A.454.454 0 012.34.9c.08-.043.161-.067.384-.067zm2.693 2.5h.743c.574 0 1.108-.296 1.413-.783L8.677.783A1.667 1.667 0 0110.09 0h3.153c.575 0 1.109.296 1.413.783L15.76 2.55c.305.487.84.783 1.414.783h.326H5.417z"/></svg><svg width="18" height="15" viewBox="-4 -4 18 15" id="icon_check_10x7_white" x="206" y="90" xmlns="http://www.w3.org/2000/svg"><path fill="#FFF" fill-rule="evenodd" d="M3.553 7L0 3.476l.695-.68 2.844 2.821L9.284 0 10 .7 3.75 6.812z"/></svg><svg width="32" height="32" viewBox="-4 -4 32 32" id="icon_check_24x24_green" x="257" y="68" xmlns="http://www.w3.org/2000/svg"><defs><filter x="-12.5%" y="-15.4%" width="125%" height="130.8%" filterUnits="objectBoundingBox" id="arc"><feOffset in="SourceAlpha" result="shadowOffsetOuter1"/><feGaussianBlur stdDeviation=".5" in="shadowOffsetOuter1" result="shadowBlurOuter1"/><feColorMatrix values="0 0 0 0 0 0 0 0 0 0 0 0 0 0 0 0 0 0 0.1 0" in="shadowBlurOuter1"/></filter><circle id="ara" cx="12" cy="12" r="12"/><path d="M10.142 15.506l6.987-8.327a.5.5 0 01.766.642l-7.337 8.745a.5.5 0 01-.767 0 .506.506 0 01-.038-.035l-3.607-3.606a.5.5 0 01.708-.708l3.288 3.289z" id="ard"/></defs><g fill="none" fill-rule="evenodd"><mask id="arb" fill="#fff"><use xlink:href="#ara"/></mask><use fill="#00C73C" xlink:href="#ara"/><circle stroke-opacity=".067" stroke="#000" cx="12" cy="12" r="11.5"/><g mask="url(#arb)"><use fill="#000" filter="url(#arc)" xlink:href="#ard"/><use fill="#FFF" xlink:href="#ard"/></g></g></svg><svg width="32" height="32" viewBox="-4 -4 32 32" id="icon_check_24x24_white" x="257" y="100" xmlns="http://www.w3.org/2000/svg"><defs><circle id="asa" cx="12" cy="12" r="12"/></defs><g fill="none" fill-rule="evenodd"><mask id="asb" fill="#fff"><use xlink:href="#asa"/></mask><use fill="#FFF" xlink:href="#asa"/><circle stroke="#D1D5DC" cx="12" cy="12" r="11.5"/><g mask="url(#asb)" fill="#D1D5DC"><path d="M10.142 15.506l6.987-8.327a.5.5 0 01.766.642l-7.337 8.745a.5.5 0 01-.767 0 .506.506 0 01-.038-.035l-3.607-3.606a.5.5 0 11.708-.708l3.288 3.289z"/></g></g></svg><svg width="46" height="46" viewBox="-4 -4 46 46" id="icon_circle_38x38_gray" y="180" xmlns="http://www.w3.org/2000/svg"><g fill="none" fill-rule="evenodd"><circle cx="19" cy="19" r="18.5" fill="#E0E0E0" stroke="#DBDBDB"/><circle cx="19" cy="19" r="7.5" fill="#D4D4D4" stroke="#D2D2D2"/></g></svg><svg width="46" height="46" viewBox="-4 -4 46 46" id="icon_circle_38x38_red" x="46" y="180" xmlns="http://www.w3.org/2000/svg"><g fill="none" fill-rule="evenodd"><circle cx="19" cy="19" r="18.5" fill="#FF5253" stroke="#F74F50"/><circle cx="19" cy="19" r="7.5" fill="#ED4C4D" stroke="#EB4B4C"/></g></svg><svg width="32" height="32" viewBox="-4 -4 32 32" id="icon_close_box_24x24_black" x="257" y="132" xmlns="http://www.w3.org/2000/svg"><g fill="none" fill-rule="evenodd"><path fill="#000" opacity=".65" d="M0 0h24v24H0z"/><path fill="#FFF" d="M12.5 11.617L5.883 5 5 5.883l6.617 6.617L5 19.117l.883.883 6.617-6.617L19.117 20l.883-.883-6.617-6.617L20 5.883 19.117 5z"/></g></svg><svg width="160" height="108" viewBox="-4 -4 160 108" id="icon_coin_152x100" xmlns="http://www.w3.org/2000/svg"><defs><rect id="awc" x="0" y="0" width="24" height="9" rx="1"/><rect id="awe" x="0" y="0" width="24" height="9" rx="1"/><rect id="awg" x="0" y="0" width="24" height="9" rx="1"/><path d="M1 0h21a1 1 0 011 1v15H0V1a1 1 0 011-1z" id="awa"/></defs><g fill="none" fill-rule="evenodd"><path d="M29 60h22a1 1 0 011 1v38a1 1 0 01-1 1H28V61a1 1 0 011-1zM15 85h13v15H14V86a1 1 0 011-1z" fill="#FCE530"/><path fill="#FED100" d="M28 67h24v2H28zM28 75h24v2H28zM28 83h24v2H28zM14 91h38v2H14z"/><path fill="#FEC500" d="M14 92h38v1H14zM28 84h24v1H28zM28 76h24v1H28zM28 68h24v1H28z"/><path d="M41 60h10a1 1 0 011 1v39H41V60zM21 85h7v15h-7z" fill="#FFC500" opacity=".3"/><path d="M1 93h13v7H0v-6a1 1 0 011-1z" fill="#FCE530"/><path fill="#FFC500" opacity=".3" d="M7 93h7v7H7z"/><g><g transform="matrix(-1 0 0 1 127 84)"><mask id="awb" fill="#fff"><use xlink:href="#awa"/></mask><use fill="#FCE530" xlink:href="#awa"/><path fill="#FFC500" opacity=".3" mask="url(#awb)" d="M13 0h16v16H13z"/><path fill="#FED100" mask="url(#awb)" d="M0 7h25v2H0z"/><path fill="#FEC500" mask="url(#awb)" d="M0 8h25v1H0z"/></g></g><g transform="rotate(45 -8.203 68.966)"><mask id="awd" fill="#fff"><use xlink:href="#awc"/></mask><use fill="#FCE42D" xlink:href="#awc"/><path d="M13 0h10a1 1 0 011 1v7a1 1 0 01-1 1H13V0z" fill="#FFC500" opacity=".3" mask="url(#awd)"/></g><g transform="rotate(45 4.812 141.357)"><mask id="awf" fill="#fff"><use xlink:href="#awe"/></mask><use fill="#FCE42D" xlink:href="#awe"/><path d="M13 0h10a1 1 0 011 1v7a1 1 0 01-1 1H13V0z" fill="#FFC500" opacity=".3" mask="url(#awf)"/></g><g transform="scale(1 -1) rotate(45 69.35 87.755)"><mask id="awh" fill="#fff"><use xlink:href="#awg"/></mask><use fill="#FCE42D" xlink:href="#awg"/><path d="M13 0h10a1 1 0 011 1v7a1 1 0 01-1 1H13V0z" fill="#FFC500" opacity=".3" mask="url(#awh)"/></g></g></svg><svg width="27" height="27" viewBox="-4 -4 27 27" id="icon_comment_17x17_blue" y="255" xmlns="http://www.w3.org/2000/svg"><g fill="none" fill-rule="evenodd" stroke="#51A3FF"><path stroke-linejoin="round" stroke-width="1.5" d="M18 7.524C18 4.106 15.336 1.303 11.936 1l-4.894.002C3.653 1.314 1 4.113 1 7.524c0 3.497 2.79 6.346 6.301 6.535l2.19 3.527 2.188-3.527C15.199 13.881 18 11.027 18 7.524z"/><path fill="#51A3FF" stroke-width=".5" d="M10.432 7.533a.812.812 0 01-.818.805.812.812 0 01-.818-.805.81.81 0 01.818-.803.81.81 0 01.818.803zm3.83 0a.812.812 0 01-.818.805.812.812 0 01-.818-.805.81.81 0 01.818-.803.81.81 0 01.818.803zm-7.66 0a.812.812 0 01-.819.805.812.812 0 01-.818-.805.81.81 0 01.818-.803c.453 0 .819.36.819.803z"/></g></svg><svg width="28" height="28" viewBox="-4 -4 28 28" id="icon_gallery_20x20_black" x="58" y="226" xmlns="http://www.w3.org/2000/svg"><defs><path id="aya" d="M0 20h20V0H0z"/></defs><g fill="none" fill-rule="evenodd"><mask id="ayb" fill="#fff"><use xlink:href="#aya"/></mask><path stroke="#000" d="M.5 19.5h19V.5H.5v19z"/><path stroke="#000" mask="url(#ayb)" d="M.04 15.49L6.69 8.867l5.417 5.395 3.7-3.684 4.231 4.214"/><path d="M15.745 6.29a1.313 1.313 0 11-2.626.001 1.313 1.313 0 012.626-.001" fill="#000"/></g></svg><svg width="40" height="34" viewBox="-4 -4 40 34" id="icon_happy_bean_32x26" x="92" y="180" xmlns="http://www.w3.org/2000/svg"><g fill="none" fill-rule="evenodd"><path fill="#10C838" fill-rule="nonzero" stroke="#333" d="M20.175 3.604c4.08-.175 5.727 3.58 5.727 3.58.104.21.217.416.34.616.29.694.789 1.286 1.431 1.7.278.233.46.339.46.339 3.716 2.877 2.939 7.193 2.939 7.193l.014-.004c-.494 3.352-2.6 6.021-5.693 7.282-4.797 1.955-10.598-.28-13.01-6.293l-.05-.12c-2.39-5.955.214-11.683 5.013-13.64a9.141 9.141 0 012.83-.653z"/><g fill="#333"><path fill-rule="nonzero" d="M16.26 2.788a.284.284 0 01-.044.236c-.856 1.15-2.572 1.582-3.528.168a.327.327 0 01-.04-.312c.543-1.222 2.106-1.305 3.46-.316.076.056.13.137.151.224z"/><path fill-rule="nonzero" d="M16.003 3.136a.295.295 0 00.213.12c1.447.095 2.887-.918 2.398-2.545a.335.335 0 00-.218-.23c-1.303-.377-2.372.744-2.47 2.399a.387.387 0 00.077.256z"/><path d="M15.61 2.528a.42.42 0 00-.124.587l.92 1.383a.438.438 0 00.6.127.42.42 0 00.124-.586l-.92-1.384a.438.438 0 00-.6-.127z"/></g><path fill="#333" fill-rule="nonzero" d="M24.929 11.996c.101.378.515.596.923.486.409-.11.657-.505.555-.883a.702.702 0 00-.529-.494.819.819 0 00-.74.199.701.701 0 00-.21.692m1.236-1.85a.292.292 0 00.205-.187.248.248 0 00-.061-.255c-.222-.226-.607-.313-1.054-.242-.375.06-.845.254-1.035.616a.251.251 0 00.017.266.28.28 0 00.256.11.3.3 0 00.238-.155c.07-.134.322-.265.6-.31.245-.039.462-.005.553.087a.29.29 0 00.281.07m-6.408 3.236c.102.378-.147.773-.555.883-.408.109-.821-.109-.923-.487-.101-.378.148-.773.556-.883.408-.109.821.109.922.487m-1.994-.984a.291.291 0 00.209-.202c.032-.125.203-.263.435-.35.261-.103.546-.114.675-.033a.3.3 0 00.29.023.282.282 0 00.17-.229.252.252 0 00-.128-.24c-.346-.22-.851-.151-1.205-.016-.423.16-.711.429-.792.735a.25.25 0 00.075.251c.07.064.174.087.271.061m5.588 3.395c1.05-.282 1.708-1.146 1.637-2.15a.256.256 0 00-.159-.218.306.306 0 00-.285.028.273.273 0 00-.127.244c.053.75-.42 1.37-1.204 1.58-.8.215-1.503-.081-1.836-.773a.272.272 0 00-.23-.15.305.305 0 00-.262.118.256.256 0 00-.031.267c.445.927 1.426 1.34 2.497 1.054"/><g stroke="#333" stroke-linecap="round"><path fill="#FFF" stroke-linejoin="round" d="M4.936 16.49a9.848 9.848 0 00-.458-.011c-.92 0-1.413-.058-2.246-.337-.644-.216-1.195-.698-1.655-1.426l-.485-.767H1a4.09 4.09 0 001.654-.364c.747-.328 1.593-.8 3.658-2.006 1.417-.828 2.786-.765 4.198-.009.8.429 2.362 1.934 4.77 4.574l.763.837H14.91c-1.191 0-2.227.13-3.105.386-.905.264-1.967.663-3.28 1.228-1.377.301-2.463.143-3.218-.52-.447-.391-.497-.985-.371-1.584z"/><path d="M9.114 15.55a9.578 9.578 0 01-2.318.698c-.773.126-1.352.186-1.739.18"/></g></g></svg><svg width="30" height="25" viewBox="-4 -4 30 25" id="icon_movie_22x17_black" x="257" y="196" xmlns="http://www.w3.org/2000/svg"><path d="M16.268.5H.5v16h15.773l.092-4.257 5.135 3.006V1.852l-5.174 3.012L16.268.5z" stroke="#000" fill="none" fill-rule="evenodd"/></svg><svg width="23" height="23" viewBox="-4 -4 23 23" id="icon_npay_15x15_green" x="217" y="180" xmlns="http://www.w3.org/2000/svg"><g fill="none" fill-rule="evenodd"><path fill="#00C63C" d="M9.24 4.063c0-.035.027-.063.061-.063h1.12c.033 0 .06.028.06.063v2.901h1.208c.033 0 .061.028.061.063v.938a.062.062 0 01-.061.062h-1.207v2.91a.062.062 0 01-.061.063H9.419a.137.137 0 01-.098-.05L5.76 6.06v4.877a.063.063 0 01-.062.063H4.58a.063.063 0 01-.061-.063v-2.91H3.312a.063.063 0 01-.062-.062v-.938c0-.035.028-.063.062-.063h1.206V4.063c0-.035.028-.063.061-.063H5.59c.034 0 .078.023.099.05l3.55 4.873v-4.86z"/><rect width="14" height="14" x=".5" y=".5" stroke="#00C63C" rx="2"/></g></svg><svg width="25" height="25" viewBox="-4 -4 25 25" id="icon_npay_17x17_green" x="166" y="226" xmlns="http://www.w3.org/2000/svg"><g fill="none" opacity=".9"><path fill="#FFF" d="M16 15a1 1 0 01-1 1H2a1 1 0 01-1-1V2a1 1 0 011-1h13a1 1 0 011 1v13z"/><path fill="#0ABE16" d="M12 4.5h-1.5v5.818L6.5 4.5H5V8H3.5v1H5v3.5h1.5V6.682l4 5.818H12V9h1.5V8H12V4.5zM16 15a1 1 0 01-1 1H2a1 1 0 01-1-1V2a1 1 0 011-1h13a1 1 0 011 1v13zM15 0H2a2 2 0 00-2 2v13a2 2 0 002 2h13a2 2 0 002-2V2a2 2 0 00-2-2z"/></g></svg><svg width="25" height="25" viewBox="-4 -4 25 25" id="icon_npay_17x17_white" x="191" y="226" xmlns="http://www.w3.org/2000/svg"><path fill="#FFF" fill-rule="evenodd" d="M2 0h13a2 2 0 012 2v13a2 2 0 01-2 2H2a2 2 0 01-2-2V2a2 2 0 012-2zm8.472 4.605v5.508L6.447 4.59a.156.156 0 00-.111-.057H5.19a.071.071 0 00-.07.072v3.288H3.753a.071.071 0 00-.07.07v1.064c0 .038.032.07.07.07H5.12v3.298c0 .04.032.072.07.072h1.268c.038 0 .07-.033.07-.072V6.868l4.036 5.542a.155.155 0 00.111.057h1.135a.07.07 0 00.07-.072V9.097h1.367a.07.07 0 00.07-.07V7.964a.07.07 0 00-.07-.071H11.88V4.605a.07.07 0 00-.07-.072h-1.268a.07.07 0 00-.07.072z"/></svg><svg width="29" height="29" viewBox="-4 -4 29 29" id="icon_npay_21x21_green" y="226" xmlns="http://www.w3.org/2000/svg"><g fill="none" fill-rule="evenodd"><rect stroke="#00C73C" x=".5" y=".5" width="20" height="20" rx="2"/><path d="M12.956 5.687c0-.048.039-.087.087-.087h1.58c.048 0 .086.04.086.087v4.017h1.704c.048 0 .087.04.087.088v1.298c0 .047-.04.086-.087.086H14.71v4.03a.087.087 0 01-.086.087H13.21a.194.194 0 01-.139-.07l-5.028-6.77v6.753c0 .048-.04.087-.087.087h-1.58a.088.088 0 01-.086-.087v-4.03H4.587a.087.087 0 01-.087-.086V9.792c0-.048.04-.088.087-.088H6.29V5.687c0-.048.04-.087.087-.087h1.427c.048 0 .11.031.14.07l5.012 6.747v-6.73z" fill="#00C73C"/></g></svg><svg width="72" height="72" viewBox="-4 -4 72 72" id="icon_npay_circle_64x64_green" y="108" xmlns="http://www.w3.org/2000/svg"><defs><circle id="bfa" cx="32" cy="32" r="32"/></defs><g fill="none" fill-rule="evenodd"><g><use fill="#00C73C" xlink:href="#bfa"/><circle stroke-opacity=".05" stroke="#000" cx="32" cy="32" r="31.5"/></g><g transform="translate(17 17)"><path d="M18.48 8.126c0-.07.054-.126.122-.126h2.239c.067 0 .122.057.122.126v5.802h2.414c.067 0 .123.057.123.126v1.875a.125.125 0 01-.123.125h-2.414v5.82a.125.125 0 01-.122.126h-2.002a.273.273 0 01-.196-.1l-7.123-9.78v9.754a.125.125 0 01-.124.126H9.16a.126.126 0 01-.124-.126v-5.82H6.624a.125.125 0 01-.124-.125v-1.875c0-.069.056-.126.124-.126h2.411V8.126c0-.07.056-.126.124-.126h2.022c.068 0 .156.045.197.1l7.101 9.746v-9.72z" fill="#FFF"/><rect stroke="#FFF" stroke-width="2" x="1" y="1" width="28" height="28" rx="2"/></g></g></svg><svg width="19" height="20" viewBox="-4 -4 19 20" id="icon_plus_11x12_green" x="241" y="226" xmlns="http://www.w3.org/2000/svg"><path fill="#00C73C" fill-rule="evenodd" d="M6.25 5.25H11v1.5H6.25v4.75h-1.5V6.75H0v-1.5h4.75V.5h1.5v4.75z"/></svg><svg width="15" height="20" viewBox="-4 -4 15 20" id="icon_slash_7x12_gray" x="240" y="180" xmlns="http://www.w3.org/2000/svg"><path fill="#B5B5B5" d="M.825 11.647L5.43.502h.765L1.62 11.647z" opacity=".9"/></svg><svg width="52" height="52" viewBox="-4 -4 52 52" id="icon_star_44x44_gray" x="72" y="108" xmlns="http://www.w3.org/2000/svg"><path fill="#D7D7D7" fill-rule="evenodd" stroke="#D0D0D0" d="M43.13 16.606l-15.575-.23-.113-.336L22.35.772c-.121-.363-.579-.363-.7 0l-5.204 15.604-.355.006-15.221.224c-.35.005-.511.508-.216.75l12.344 10.156-.09.315-4.32 15.128c-.109.383.271.677.555.477L22 34.377l.288.202 12.57 8.853c.283.2.663-.094.554-.478l-4.41-15.442.253-.208 12.091-9.948c.295-.242.133-.745-.216-.75z"/></svg><svg width="52" height="52" viewBox="-4 -4 52 52" id="icon_star_44x44_red" x="124" y="108" xmlns="http://www.w3.org/2000/svg"><path fill="#FF5356" fill-rule="evenodd" stroke="#F43435" d="M43.13 16.606l-15.575-.23-.113-.336L22.35.772c-.121-.363-.579-.363-.7 0l-5.204 15.604-.355.006-15.221.224c-.35.005-.511.508-.216.75l12.344 10.156-.09.315-4.32 15.128c-.109.383.271.677.555.477L22 34.377l.288.202 12.57 8.853c.283.2.663-.094.554-.478l-4.41-15.442.253-.208 12.091-9.948c.295-.242.133-.745-.216-.75z"/></svg><svg width="20" height="20" viewBox="-4 -4 20 20" id="icon_x_12x12_white" x="260" y="226" xmlns="http://www.w3.org/2000/svg"><path fill="#FFF" fill-rule="evenodd" d="M6 5.294L.706 0 0 .706 5.294 6 0 11.294.706 12 6 6.706 11.294 12l.706-.706L6.706 6 12 .706 11.294 0z"/></svg><svg width="25" height="25" viewBox="-4 -4 25 25" id="icon_x_17x17_white" x="216" y="226" xmlns="http://www.w3.org/2000/svg"><path d="M8.5 7.5L1 0 0 1l7.5 7.5L0 16l1 1 7.5-7.5L16 17l1-1-7.5-7.5L17 1l-1-1z" fill="#FFF" fill-rule="evenodd"/></svg><svg width="29" height="29" viewBox="-4 -4 29 29" id="icon_x_21x21_black" x="29" y="226" xmlns="http://www.w3.org/2000/svg"><g fill="none"><path fill="#FFF" d="M17.042.586a2 2 0 012.829 0l.543.543a2 2 0 010 2.829L13.872 10.5l6.542 6.542a2 2 0 010 2.829l-.543.543a2 2 0 01-2.829 0L10.5 13.872l-6.542 6.542a2 2 0 01-2.829 0l-.543-.543a2 2 0 010-2.829L7.128 10.5.586 3.958a2 2 0 010-2.829l.543-.543a2 2 0 012.829 0L10.5 7.128 17.042.586zM10.5 9.956L2.544 2 2 2.544 9.956 10.5 2 18.456l.544.544 7.956-7.956L18.456 19l.544-.544-7.956-7.956L19 2.544 18.456 2 10.5 9.956z"/><path fill="#000" d="M10.5 9.956L2.544 2 2 2.544 9.956 10.5 2 18.456l.544.544 7.956-7.956L18.456 19l.544-.544-7.956-7.956L19 2.544 18.456 2z"/></g></svg><svg width="32" height="32" viewBox="-4 -4 32 32" id="icon_x_delete_24x24_black" x="257" y="164" xmlns="http://www.w3.org/2000/svg"><g fill="none" fill-rule="evenodd"><path fill="#000" d="M0 0h24v24H0z" opacity=".6"/><path fill="#FFF" d="M12 11.176L5.824 5 5 5.824 11.176 12 5 18.176l.824.824L12 12.824 18.176 19l.824-.824L12.824 12 19 5.824 18.176 5z"/></g></svg></svg>